<svg xmlns="http://www.w3.org/2000/svg" width="80" height="60" viewBox="0 0 80 60"><g fill="none" fill-rule="evenodd" transform="translate(6 8)"><path stroke="#99B3FF" stroke-linecap="round" stroke-linejoin="round" stroke-width="1.5" d="M35.837658,13.1792414 L36.4504857,10.2376688 C37.1589456,6.83706089 40.1560534,4.4 43.6296754,4.4 L55.2666667,4.4 L55.2666667,4.4"/><path stroke="#81D9D9" stroke-linecap="round" stroke-linejoin="round" stroke-width="1.5" d="M35.8511448,30.8854952 L36.4504857,33.7623312 C37.1589456,37.1629391 40.1560534,39.6 43.6296754,39.6 L55.2666667,39.6 L55.2666667,39.6"/><path stroke="#FEE680" stroke-linecap="round" stroke-linejoin="round" stroke-width="1.5" d="M32.521987,13.1319222 L32.0879568,10.5277408 C31.4986159,6.99169565 28.4392218,4.4 24.8544014,4.4 L13.4666667,4.4 L13.4666667,4.4"/><path stroke="#8FCB90" stroke-linecap="round" stroke-linejoin="round" stroke-width="1.5" d="M32.5207383,30.8755701 L32.0879568,33.4722592 C31.4986159,37.0083044 28.4392218,39.6 24.8544014,39.6 L13.4666667,39.6 L13.4666667,39.6"/><line x1="43.039" x2="64.8" y1="22" y2="22" stroke="#81D4FF" stroke-linecap="round" stroke-linejoin="round" stroke-width="1.5"/><line x1="3.2" x2="25" y1="22" y2="22" stroke="#BED885" stroke-linecap="round" stroke-linejoin="round" stroke-width="1.5"/><rect width="10" height="4" x="29" y="20" fill="#333C40" rx="2"/><rect width="16" height="8" x="42" fill="#99B3FF" rx="4"/><rect width="16" height="8" x="10" fill="#FEE680" rx="4"/><rect width="16" height="8" x="52" y="17.6" fill="#81D4FF" rx="4"/><rect width="16" height="8" y="17.6" fill="#BED885" rx="4"/><rect width="16" height="8" x="42" y="35.2" fill="#81D9D9" rx="4"/><rect width="16" height="8" x="10" y="35" fill="#8FCB90" rx="4"/></g></svg>